<?xml version="1.0" encoding="utf-8"?>
<!-- Generator: Adobe Illustrator 25.2.0, SVG Export Plug-In . SVG Version: 6.00 Build 0)  -->
<svg version="1.1" id="Layer_1" xmlns="http://www.w3.org/2000/svg" xmlns:xlink="http://www.w3.org/1999/xlink" x="0px" y="0px"
	 viewBox="0 0 350 612" style="enable-background:new 0 0 350 612;" xml:space="preserve">
<style type="text/css">
	.st0{fill:url(#SVGID_1_);stroke:#D9CBF4;stroke-width:0.7361;stroke-miterlimit:10;}
	.st1{fill:none;stroke:#D9CBF4;stroke-width:0.25;stroke-miterlimit:10;}
	.st2{fill:none;stroke:#040207;stroke-width:0.7833;stroke-miterlimit:10;}
	.st3{fill:#4F4456;stroke:#D9CBF4;stroke-width:0.7833;stroke-miterlimit:10;}
	.st4{fill:#373141;stroke:#D9CBF4;stroke-width:0.7833;stroke-miterlimit:10;}
</style>
<linearGradient id="SVGID_1_" gradientUnits="userSpaceOnUse" x1="169" y1="606.1769" x2="169" y2="-7.7081" gradientTransform="matrix(1 0 0 -1 0 612)">
	<stop  offset="0" style="stop-color:#4F4456"/>
	<stop  offset="0.2107" style="stop-color:#473E4F"/>
	<stop  offset="0.4645" style="stop-color:#373141"/>
	<stop  offset="0.4673" style="stop-color:#373141"/>
	<stop  offset="0.7751" style="stop-color:#493F51"/>
	<stop  offset="1" style="stop-color:#4F4456"/>
</linearGradient>
<rect x="-36.5" y="-7.5" class="st0" width="411" height="627"/>
<g>
	<line class="st1" x1="342" y1="508.4" x2="-0.5" y2="612.5"/>
	<line class="st1" x1="342" y1="304.9" x2="7.3" y2="406.8"/>
	<line class="st1" x1="339" y1="102.5" x2="6.4" y2="203.3"/>
	<line class="st1" x1="7.5" y1="406.6" x2="341.9" y2="508.5"/>
	<line class="st1" x1="7.4" y1="203.1" x2="341.8" y2="304.9"/>
	<line class="st1" x1="0.5" y1="0.5" x2="338" y2="101.9"/>
</g>
<g>
	<line class="st2" x1="440" y1="-209.5" x2="556" y2="-209.5"/>
	<line class="st2" x1="435" y1="-118.5" x2="548" y2="-118.5"/>
	<line class="st2" x1="639" y1="-90.5" x2="548" y2="-90.5"/>
	<line class="st2" x1="556" y1="-158.5" x2="650" y2="-158.5"/>
	<line class="st2" x1="802" y1="-59.5" x2="710" y2="-59.5"/>
	<line class="st2" x1="692" y1="-108.5" x2="784" y2="-108.5"/>
	<line class="st2" x1="802" y1="-178.5" x2="710" y2="-178.5"/>
	<line class="st2" x1="620" y1="-209.5" x2="684" y2="-209.5"/>
	<line class="st2" x1="692" y1="-140.5" x2="627" y2="-140.5"/>
	<line class="st2" x1="610" y1="-50.5" x2="684" y2="-50.5"/>
	<line class="st2" x1="692" y1="-17.5" x2="620" y2="-17.5"/>
	<line class="st2" x1="507" y1="12.5" x2="556" y2="12.5"/>
	<line class="st2" x1="517" y1="-43.5" x2="548" y2="-43.5"/>
	<line class="st2" x1="584" y1="45.5" x2="745" y2="45.5"/>
	<line class="st2" x1="766" y1="85.5" x2="684" y2="85.5"/>
	<line class="st2" x1="541" y1="185.5" x2="627" y2="185.5"/>
	<line class="st2" x1="745" y1="206.5" x2="692" y2="206.5"/>
	<line class="st2" x1="610" y1="248.5" x2="660" y2="248.5"/>
	<line class="st2" x1="725" y1="299.5" x2="639" y2="299.5"/>
	<line class="st2" x1="517" y1="155.5" x2="603" y2="155.5"/>
	<line class="st2" x1="756" y1="150.5" x2="866" y2="150.5"/>
	<line class="st2" x1="756" y1="73.5" x2="745" y2="73.5"/>
	<line class="st2" x1="802" y1="5.5" x2="751" y2="5.5"/>
	<line class="st2" x1="426" y1="85.5" x2="548" y2="85.5"/>
	<line class="st2" x1="435" y1="285.5" x2="533" y2="285.5"/>
	<line class="st2" x1="570" y1="265.5" x2="452" y2="265.5"/>
	<line class="st2" x1="548" y1="358.5" x2="635" y2="358.5"/>
	<line class="st2" x1="766" y1="349.5" x2="719" y2="349.5"/>
	<line class="st2" x1="725" y1="274.5" x2="777" y2="274.5"/>
	<line class="st2" x1="670" y1="141.5" x2="738" y2="141.5"/>
	<line class="st2" x1="584" y1="94.5" x2="639" y2="94.5"/>
	<line class="st2" x1="584" y1="5.5" x2="627" y2="5.5"/>
	<line class="st2" x1="639" y1="-108.5" x2="692" y2="-108.5"/>
	<line class="st2" x1="511" y1="-178.5" x2="627" y2="-178.5"/>
	<line class="st2" x1="484" y1="-28.5" x2="532" y2="-28.5"/>
	<line class="st2" x1="484" y1="196.5" x2="533" y2="196.5"/>
	<line class="st2" x1="492" y1="333.5" x2="556" y2="333.5"/>
	<line class="st2" x1="606" y1="318.5" x2="570" y2="318.5"/>
	<line class="st2" x1="665" y1="339.5" x2="710" y2="339.5"/>
	<line class="st2" x1="570" y1="224.5" x2="627" y2="224.5"/>
</g>
<rect x="-121.5" y="-195.5" class="st3" width="129" height="76"/>
<rect x="81.5" y="-217.5" class="st4" width="159" height="89"/>
<g>
	<line class="st1" x1="6.5" y1="508.4" x2="349" y2="612.5"/>
	<line class="st1" x1="6.5" y1="304.9" x2="341.1" y2="406.8"/>
	<line class="st1" x1="9.5" y1="102.5" x2="342.1" y2="203.4"/>
	<line class="st1" x1="341" y1="406.7" x2="6.6" y2="508.5"/>
	<line class="st1" x1="341.1" y1="203.1" x2="6.7" y2="305"/>
	<line class="st1" x1="348" y1="0.5" x2="10.5" y2="101.9"/>
</g>
</svg>
