<?xml version="1.0" encoding="utf-8"?>
<!-- Generator: Adobe Illustrator 25.2.0, SVG Export Plug-In . SVG Version: 6.00 Build 0)  -->
<svg version="1.1" id="Layer_1" xmlns="http://www.w3.org/2000/svg" xmlns:xlink="http://www.w3.org/1999/xlink" x="0px" y="0px"
	 viewBox="0 0 350 612" style="enable-background:new 0 0 350 612;" xml:space="preserve">
<style type="text/css">
	.st0{fill:none;stroke:#D9CBF4;stroke-width:1.4408;stroke-miterlimit:10;}
	.st1{fill:none;stroke:#000000;stroke-width:1.4408;stroke-miterlimit:10;}
	.st2{fill:none;stroke:#FFFFFF;stroke-width:1.4408;stroke-miterlimit:10;}
</style>
<g>
	<polyline class="st0" points="0.2,244 304.2,371.7 0.2,503.8 	"/>
	<polyline class="st0" points="351.9,248.7 58,372.2 350.3,499.2 	"/>
</g>
<path class="st1" d="M70.7,268.6"/>
<path class="st1" d="M70.7,468"/>
<g>
	<path d="M190.7,236.7V59h36.2c16.7,0,29.1,3.4,37.2,10.1s14.2,16.9,18.3,30.6c4.1,13.7,6.1,29.8,6.1,48.5c0,17.7-2.1,33.3-6.4,46.7
		s-10.4,23.7-18.3,30.9s-20.2,10.8-36.9,10.8L190.7,236.7z M210.6,217.1h13.3c13.5,0,23.1-2.8,28.9-8.4c5.7-5.6,9.8-13.3,12.3-23.2
		s3.7-23.5,3.7-40.9c0-17-1.4-30.2-4.3-39.3c-2.9-9.2-7-16.2-12.4-21.1s-14.2-7.4-26.5-7.4h-14.9L210.6,217.1z"/>
	<polygon points="84.1,237.1 121,94.9 158.6,237.1 179.6,237.1 132.2,59.4 112,59.4 64.9,237.1 	"/>
</g>
<polyline class="st1" points="-0.1,239.6 303.9,367.3 -0.1,499.4 "/>
<polyline class="st1" points="351.6,244.3 57.7,367.8 350,494.8 "/>
<path class="st1" d="M290.9,479.1"/>
<path class="st2" d="M70,273"/>
<path class="st2" d="M70,472.4"/>
<path class="st2" d="M290.2,483.5"/>
<polyline class="st1" points="0.2,248.7 304.1,376.4 0.2,508.5 "/>
<polyline class="st1" points="351.9,253.4 58,376.9 350.2,503.9 "/>
</svg>
