<?xml version="1.0" encoding="utf-8"?>
<!-- Generator: Adobe Illustrator 25.0.1, SVG Export Plug-In . SVG Version: 6.00 Build 0)  -->
<svg version="1.1" id="Layer_1" xmlns="http://www.w3.org/2000/svg" xmlns:xlink="http://www.w3.org/1999/xlink" x="0px" y="0px"
	 viewBox="0 0 117.1 106.8" style="enable-background:new 0 0 117.1 106.8;" xml:space="preserve">
<style type="text/css">
	.st0{fill:#030914;}
	.st1{font-family:'Roboto-Light';}
	.st2{font-size:73.4977px;}
</style>
<g id="Layer_2_1_">
	<g id="图层_1">
		<path class="st0" d="M77.7,101.2H41.9c-6.5,0-12.6-3.5-15.9-9.1l-17.9-31C5,55.4,5,48.5,8.2,42.8l17.9-31
			c3.3-5.7,9.3-9.1,15.9-9.1h35.8c6.5,0,12.6,3.5,15.8,9.1l17.9,31c3.3,5.7,3.3,12.6,0,18.3l-17.9,31
			C90.3,97.7,84.2,101.2,77.7,101.2z M40.1,5.5c-4.4,0-8.4,2.3-10.6,6.1L9.7,46c-2.2,3.8-2.2,8.4,0,12.2l19.9,34.4
			c2.2,3.8,6.2,6.1,10.6,6.2h39.7c4.4,0,8.4-2.4,10.6-6.2l19.9-34.4c2.2-3.8,2.2-8.4,0-12.2l-20-34.4c-2.2-3.8-6.2-6.1-10.6-6.1
			C79.8,5.5,40.1,5.5,40.1,5.5z"/>
		<text transform="matrix(1 0 0 1 26.4609 69.2333)" class="st0 st1 st2">@</text>
	</g>
</g>
</svg>
